<?xml version="1.0" standalone="no"?>
<!DOCTYPE svg PUBLIC "-//W3C//DTD SVG 20010904//EN"
 "http://www.w3.org/TR/2001/REC-SVG-20010904/DTD/svg10.dtd">
<svg version="1.0" xmlns="http://www.w3.org/2000/svg"
 width="512.000000pt" height="512.000000pt" viewBox="0 0 512.000000 512.000000"
 preserveAspectRatio="xMidYMid meet">
<metadata>
Created by potrace 1.14, written by Peter Selinger 2001-2017
</metadata>
<g transform="translate(0.000000,512.000000) scale(0.100000,-0.100000)"
fill="#000000" stroke="none">
<path d="M2473 4877 c-163 -86 -301 -360 -405 -807 l-13 -55 -220 -1 c-199 -1
-390 -9 -470 -19 -16 -2 -57 -7 -90 -10 -70 -8 -118 -14 -160 -20 -16 -3 -48
-7 -70 -10 -22 -3 -51 -8 -65 -11 -14 -3 -36 -8 -50 -10 -14 -2 -36 -7 -50
-10 -14 -3 -36 -8 -50 -10 -131 -24 -359 -99 -490 -162 -122 -58 -194 -107
-256 -174 -140 -155 -96 -319 126 -463 63 -41 170 -95 218 -110 18 -5 22 -12
18 -28 -3 -12 -6 -308 -6 -658 l0 -637 -112 -55 c-283 -138 -386 -302 -291
-465 125 -217 619 -404 1233 -467 30 -4 71 -8 90 -10 89 -11 304 -19 500 -19
200 0 282 4 497 20 64 5 95 3 137 -10 95 -30 169 -4 253 88 56 61 129 181 166
272 l23 59 337 3 336 2 15 -27 c17 -35 63 -184 71 -238 13 -74 12 -181 -1
-233 -31 -119 -115 -184 -257 -197 -134 -13 -167 -32 -167 -94 1 -71 47 -96
155 -86 224 20 368 118 429 291 26 74 34 189 21 299 -8 66 -50 237 -65 265 -9
17 -1 19 133 22 78 2 149 7 157 11 13 6 23 -9 48 -70 41 -100 108 -215 162
-276 173 -195 364 -113 524 226 76 160 155 441 202 716 60 355 81 633 81 1076
0 314 -10 535 -32 715 -2 19 -7 58 -10 85 -72 595 -223 1059 -401 1229 -124
119 -244 112 -365 -22 -54 -60 -138 -206 -174 -305 -14 -38 -21 -46 -34 -40
-9 4 -274 9 -589 11 l-573 2 -16 38 c-58 142 -141 275 -205 331 -81 70 -171
88 -245 48z"/>
</g>
</svg>
